<mxfile host="app.diagrams.net" modified="2023-11-03T14:51:12.030Z" agent="Mozilla/5.0 (Windows NT 10.0; Win64; x64) AppleWebKit/537.36 (KHTML, like Gecko) Chrome/118.0.0.0 Safari/537.36" etag="BrHcyrvAF_ZWgDvawUes" version="22.0.8" type="github">
  <diagram name="1 oldal" id="SZkVGr4VHI8cuYks12D8">
    <mxGraphModel dx="1434" dy="780" grid="1" gridSize="10" guides="1" tooltips="1" connect="1" arrows="1" fold="1" page="1" pageScale="1" pageWidth="827" pageHeight="1169" math="0" shadow="0">
      <root>
        <mxCell id="0" />
        <mxCell id="1" parent="0" />
        <mxCell id="VQEg4Eyufkacg4ii3oWg-2" value="&lt;div&gt;&lt;i&gt;&lt;b&gt;kezdőpont&lt;/b&gt;&lt;/i&gt;&lt;/div&gt;&lt;div&gt;&lt;i&gt;&lt;b&gt;&lt;br&gt;&lt;/b&gt;&lt;/i&gt;&lt;/div&gt;" style="shape=umlActor;verticalLabelPosition=bottom;verticalAlign=top;html=1;outlineConnect=0;fillColor=#a0522d;strokeColor=#6D1F00;fontColor=#ffffff;" parent="1" vertex="1">
          <mxGeometry x="820" y="160" width="30" height="60" as="geometry" />
        </mxCell>
        <mxCell id="VQEg4Eyufkacg4ii3oWg-5" value="" style="endArrow=none;html=1;rounded=0;" parent="1" source="VQEg4Eyufkacg4ii3oWg-10" edge="1">
          <mxGeometry width="50" height="50" relative="1" as="geometry">
            <mxPoint x="890" y="210" as="sourcePoint" />
            <mxPoint x="1000" y="210" as="targetPoint" />
          </mxGeometry>
        </mxCell>
        <mxCell id="VQEg4Eyufkacg4ii3oWg-6" value="" style="endArrow=none;html=1;rounded=0;" parent="1" source="VQEg4Eyufkacg4ii3oWg-8" edge="1">
          <mxGeometry width="50" height="50" relative="1" as="geometry">
            <mxPoint x="670" y="210" as="sourcePoint" />
            <mxPoint x="780" y="210" as="targetPoint" />
          </mxGeometry>
        </mxCell>
        <mxCell id="VQEg4Eyufkacg4ii3oWg-9" value="" style="endArrow=none;html=1;rounded=0;" parent="1" target="VQEg4Eyufkacg4ii3oWg-8" edge="1">
          <mxGeometry width="50" height="50" relative="1" as="geometry">
            <mxPoint x="670" y="210" as="sourcePoint" />
            <mxPoint x="780" y="210" as="targetPoint" />
          </mxGeometry>
        </mxCell>
        <mxCell id="VQEg4Eyufkacg4ii3oWg-8" value="" style="triangle;whiteSpace=wrap;html=1;rotation=-177;" parent="1" vertex="1">
          <mxGeometry x="660" y="200" width="10" height="20" as="geometry" />
        </mxCell>
        <mxCell id="VQEg4Eyufkacg4ii3oWg-11" value="" style="endArrow=none;html=1;rounded=0;" parent="1" target="VQEg4Eyufkacg4ii3oWg-10" edge="1">
          <mxGeometry width="50" height="50" relative="1" as="geometry">
            <mxPoint x="890" y="210" as="sourcePoint" />
            <mxPoint x="1000" y="210" as="targetPoint" />
          </mxGeometry>
        </mxCell>
        <mxCell id="VQEg4Eyufkacg4ii3oWg-10" value="" style="triangle;whiteSpace=wrap;html=1;rotation=-180;direction=west;" parent="1" vertex="1">
          <mxGeometry x="1000" y="200" width="10" height="20" as="geometry" />
        </mxCell>
        <mxCell id="VQEg4Eyufkacg4ii3oWg-12" value="" style="endArrow=classic;html=1;rounded=0;" parent="1" source="VQEg4Eyufkacg4ii3oWg-38" edge="1">
          <mxGeometry width="50" height="50" relative="1" as="geometry">
            <mxPoint x="835" y="250" as="sourcePoint" />
            <mxPoint x="834.5" y="380" as="targetPoint" />
          </mxGeometry>
        </mxCell>
        <mxCell id="VQEg4Eyufkacg4ii3oWg-13" value="&lt;b&gt;&lt;i&gt;&lt;font style=&quot;font-size: 16px;&quot;&gt;szökőkút&lt;/font&gt;&lt;/i&gt;&lt;/b&gt;" style="ellipse;whiteSpace=wrap;html=1;aspect=fixed;" parent="1" vertex="1">
          <mxGeometry x="745" y="390" width="180" height="180" as="geometry" />
        </mxCell>
        <mxCell id="VQEg4Eyufkacg4ii3oWg-16" value="Magdi jósnő" style="shape=ext;double=1;rounded=0;whiteSpace=wrap;html=1;" parent="1" vertex="1">
          <mxGeometry x="1050" y="190" width="120" height="40" as="geometry" />
        </mxCell>
        <mxCell id="VQEg4Eyufkacg4ii3oWg-18" value="" style="endArrow=classic;html=1;rounded=0;fontSize=30;entryX=0;entryY=1;entryDx=0;entryDy=0;" parent="1" target="VQEg4Eyufkacg4ii3oWg-13" edge="1">
          <mxGeometry width="50" height="50" relative="1" as="geometry">
            <mxPoint x="670" y="230" as="sourcePoint" />
            <mxPoint x="660" y="450" as="targetPoint" />
            <Array as="points">
              <mxPoint x="670" y="470" />
            </Array>
          </mxGeometry>
        </mxCell>
        <mxCell id="VQEg4Eyufkacg4ii3oWg-20" value="" style="endArrow=classic;html=1;rounded=0;entryX=0.844;entryY=0.894;entryDx=0;entryDy=0;entryPerimeter=0;" parent="1" target="VQEg4Eyufkacg4ii3oWg-13" edge="1">
          <mxGeometry width="50" height="50" relative="1" as="geometry">
            <mxPoint x="1100" y="250" as="sourcePoint" />
            <mxPoint x="870" y="420" as="targetPoint" />
            <Array as="points">
              <mxPoint x="1100" y="450" />
            </Array>
          </mxGeometry>
        </mxCell>
        <mxCell id="VQEg4Eyufkacg4ii3oWg-22" value="" style="endArrow=classic;html=1;rounded=0;exitX=0.5;exitY=1;exitDx=0;exitDy=0;" parent="1" source="VQEg4Eyufkacg4ii3oWg-13" edge="1">
          <mxGeometry width="50" height="50" relative="1" as="geometry">
            <mxPoint x="820" y="470" as="sourcePoint" />
            <mxPoint x="1050" y="750" as="targetPoint" />
            <Array as="points">
              <mxPoint x="835" y="750" />
            </Array>
          </mxGeometry>
        </mxCell>
        <mxCell id="VQEg4Eyufkacg4ii3oWg-23" value="szerencsekerék" style="shape=ext;double=1;rounded=0;whiteSpace=wrap;html=1;" parent="1" vertex="1">
          <mxGeometry x="710" y="710" width="120" height="40" as="geometry" />
        </mxCell>
        <mxCell id="VQEg4Eyufkacg4ii3oWg-27" value="kastély" style="shape=ext;double=1;rounded=0;whiteSpace=wrap;html=1;" parent="1" vertex="1">
          <mxGeometry x="1060" y="735" width="120" height="45" as="geometry" />
        </mxCell>
        <mxCell id="VQEg4Eyufkacg4ii3oWg-29" value="fotózkodás" style="shape=ext;double=1;rounded=0;whiteSpace=wrap;html=1;" parent="1" vertex="1">
          <mxGeometry x="710" y="410" width="90" height="30" as="geometry" />
        </mxCell>
        <mxCell id="VQEg4Eyufkacg4ii3oWg-30" value="bohóc" style="shape=ext;double=1;rounded=0;whiteSpace=wrap;html=1;" parent="1" vertex="1">
          <mxGeometry x="880" y="410" width="90" height="30" as="geometry" />
        </mxCell>
        <mxCell id="VQEg4Eyufkacg4ii3oWg-32" value="kisgyerek:&lt;br&gt;megbotlasz" style="shape=ext;double=1;rounded=0;whiteSpace=wrap;html=1;" parent="1" vertex="1">
          <mxGeometry x="1050" y="480" width="120" height="40" as="geometry" />
        </mxCell>
        <mxCell id="VQEg4Eyufkacg4ii3oWg-33" value="&lt;b&gt;&lt;i&gt;&lt;font style=&quot;font-size: 13px;&quot;&gt;szobor&lt;/font&gt;&lt;/i&gt;&lt;/b&gt;" style="ellipse;whiteSpace=wrap;html=1;aspect=fixed;" parent="1" vertex="1">
          <mxGeometry x="865" y="675" width="60" height="60" as="geometry" />
        </mxCell>
        <mxCell id="VQEg4Eyufkacg4ii3oWg-34" value="varázs póni" style="shape=ext;double=1;rounded=0;whiteSpace=wrap;html=1;" parent="1" vertex="1">
          <mxGeometry x="430" y="300" width="120" height="40" as="geometry" />
        </mxCell>
        <mxCell id="VQEg4Eyufkacg4ii3oWg-35" value="balra megy (Játékos szemszögéből)" style="text;html=1;align=center;verticalAlign=middle;resizable=0;points=[];autosize=1;strokeColor=none;fillColor=none;" parent="1" vertex="1">
          <mxGeometry x="861" y="170" width="220" height="30" as="geometry" />
        </mxCell>
        <mxCell id="VQEg4Eyufkacg4ii3oWg-37" value="jobbra megy(Játékos szemszögéből)" style="text;html=1;align=center;verticalAlign=middle;resizable=0;points=[];autosize=1;strokeColor=none;fillColor=none;" parent="1" vertex="1">
          <mxGeometry x="595" y="170" width="230" height="30" as="geometry" />
        </mxCell>
        <mxCell id="VQEg4Eyufkacg4ii3oWg-39" value="" style="endArrow=classic;html=1;rounded=0;" parent="1" target="VQEg4Eyufkacg4ii3oWg-38" edge="1">
          <mxGeometry width="50" height="50" relative="1" as="geometry">
            <mxPoint x="835" y="250" as="sourcePoint" />
            <mxPoint x="834.5" y="380" as="targetPoint" />
          </mxGeometry>
        </mxCell>
        <mxCell id="VQEg4Eyufkacg4ii3oWg-38" value="&lt;div&gt;egyenesen megy&lt;/div&gt;&lt;div&gt;&lt;br&gt;&lt;/div&gt;" style="text;html=1;align=center;verticalAlign=middle;resizable=0;points=[];autosize=1;strokeColor=none;fillColor=none;" parent="1" vertex="1">
          <mxGeometry x="775" y="265" width="120" height="40" as="geometry" />
        </mxCell>
        <mxCell id="VQEg4Eyufkacg4ii3oWg-40" value="&lt;div&gt;behív a sátrába&lt;/div&gt;" style="text;html=1;align=center;verticalAlign=middle;resizable=0;points=[];autosize=1;strokeColor=none;fillColor=none;" parent="1" vertex="1">
          <mxGeometry x="1050" y="230" width="110" height="30" as="geometry" />
        </mxCell>
        <mxCell id="VQEg4Eyufkacg4ii3oWg-41" value="" style="endArrow=none;dashed=1;html=1;rounded=0;exitX=0.695;exitY=0.058;exitDx=0;exitDy=0;exitPerimeter=0;" parent="1" source="VQEg4Eyufkacg4ii3oWg-45" edge="1">
          <mxGeometry width="50" height="50" relative="1" as="geometry">
            <mxPoint x="1050" y="280" as="sourcePoint" />
            <mxPoint x="1070" y="260" as="targetPoint" />
          </mxGeometry>
        </mxCell>
        <mxCell id="VQEg4Eyufkacg4ii3oWg-42" value="" style="endArrow=none;dashed=1;html=1;rounded=0;entryX=0.658;entryY=1.033;entryDx=0;entryDy=0;entryPerimeter=0;" parent="1" edge="1">
          <mxGeometry width="50" height="50" relative="1" as="geometry">
            <mxPoint x="1170" y="270" as="sourcePoint" />
            <mxPoint x="1130" y="260" as="targetPoint" />
          </mxGeometry>
        </mxCell>
        <mxCell id="VQEg4Eyufkacg4ii3oWg-43" value="" style="endArrow=none;dashed=1;html=1;rounded=0;entryX=0.533;entryY=0.967;entryDx=0;entryDy=0;entryPerimeter=0;exitX=0.5;exitY=-0.075;exitDx=0;exitDy=0;exitPerimeter=0;" parent="1" source="mEzDhjuTcP2UeNapwm7h-10" target="VQEg4Eyufkacg4ii3oWg-40" edge="1">
          <mxGeometry width="50" height="50" relative="1" as="geometry">
            <mxPoint x="1140" y="290" as="sourcePoint" />
            <mxPoint x="1140" y="270" as="targetPoint" />
          </mxGeometry>
        </mxCell>
        <mxCell id="VQEg4Eyufkacg4ii3oWg-44" value="" style="endArrow=none;dashed=1;html=1;rounded=0;entryX=0.533;entryY=0.967;entryDx=0;entryDy=0;entryPerimeter=0;exitX=0.667;exitY=-0.008;exitDx=0;exitDy=0;exitPerimeter=0;" parent="1" source="VQEg4Eyufkacg4ii3oWg-46" edge="1">
          <mxGeometry width="50" height="50" relative="1" as="geometry">
            <mxPoint x="1090.5" y="290" as="sourcePoint" />
            <mxPoint x="1089.5" y="259" as="targetPoint" />
          </mxGeometry>
        </mxCell>
        <mxCell id="VQEg4Eyufkacg4ii3oWg-45" value="&lt;div style=&quot;font-size: 10px;&quot;&gt;elfogadod:&lt;/div&gt;&lt;div style=&quot;font-size: 10px;&quot;&gt;átver&lt;br style=&quot;font-size: 10px;&quot;&gt;&lt;/div&gt;" style="text;html=1;align=center;verticalAlign=middle;resizable=0;points=[];autosize=1;strokeColor=none;fillColor=#f8cecc;fontSize=10;rounded=1;" parent="1" vertex="1">
          <mxGeometry x="960" y="260" width="70" height="40" as="geometry" />
        </mxCell>
        <mxCell id="VQEg4Eyufkacg4ii3oWg-46" value="&lt;div style=&quot;font-size: 10px;&quot;&gt;elfogadod:&lt;/div&gt;&lt;div style=&quot;font-size: 10px;&quot;&gt;nem ver át&lt;br style=&quot;font-size: 10px;&quot;&gt;&lt;/div&gt;" style="text;html=1;align=center;verticalAlign=middle;resizable=0;points=[];autosize=1;strokeColor=none;fillColor=#d5e8d4;fontSize=10;fillStyle=auto;gradientColor=none;rounded=1;glass=0;shadow=0;" parent="1" vertex="1">
          <mxGeometry x="1040" y="280" width="70" height="40" as="geometry" />
        </mxCell>
        <mxCell id="VQEg4Eyufkacg4ii3oWg-49" value="&lt;div style=&quot;font-size: 10px;&quot;&gt;elutasítod:&lt;/div&gt;&lt;div style=&quot;font-size: 10px;&quot;&gt;elengedett&lt;/div&gt;" style="text;html=1;align=center;verticalAlign=middle;resizable=0;points=[];autosize=1;strokeColor=none;fillColor=#d5e8d4;fontSize=10;rounded=1;" parent="1" vertex="1">
          <mxGeometry x="1180" y="250" width="70" height="40" as="geometry" />
        </mxCell>
        <mxCell id="RfejrbbT5hm9Z-tXLrb4-1" value="&lt;font style=&quot;font-size: 10px;&quot;&gt;gonosz volt:&lt;br&gt;elijeszt&lt;/font&gt;" style="text;html=1;align=center;verticalAlign=middle;resizable=0;points=[];autosize=1;strokeColor=none;fillColor=#f8cecc;rounded=1;" parent="1" vertex="1">
          <mxGeometry x="920" y="450" width="80" height="40" as="geometry" />
        </mxCell>
        <mxCell id="RfejrbbT5hm9Z-tXLrb4-3" value="kedves volt:&lt;br style=&quot;font-size: 9px;&quot;&gt;kapsz cukorkát" style="text;html=1;align=center;verticalAlign=middle;resizable=0;points=[];autosize=1;strokeColor=none;fillColor=#d5e8d4;fontSize=9;rounded=1;" parent="1" vertex="1">
          <mxGeometry x="1010" y="410" width="80" height="40" as="geometry" />
        </mxCell>
        <mxCell id="RfejrbbT5hm9Z-tXLrb4-7" value="" style="endArrow=none;dashed=1;html=1;rounded=0;" parent="1" target="RfejrbbT5hm9Z-tXLrb4-1" edge="1">
          <mxGeometry width="50" height="50" relative="1" as="geometry">
            <mxPoint x="930" y="430" as="sourcePoint" />
            <mxPoint x="980" y="380" as="targetPoint" />
          </mxGeometry>
        </mxCell>
        <mxCell id="RfejrbbT5hm9Z-tXLrb4-8" value="" style="endArrow=none;dashed=1;html=1;rounded=0;exitX=0.75;exitY=1;exitDx=0;exitDy=0;" parent="1" source="VQEg4Eyufkacg4ii3oWg-30" target="RfejrbbT5hm9Z-tXLrb4-3" edge="1">
          <mxGeometry width="50" height="50" relative="1" as="geometry">
            <mxPoint x="940" y="440" as="sourcePoint" />
            <mxPoint x="942" y="450" as="targetPoint" />
            <Array as="points">
              <mxPoint x="990" y="440" />
            </Array>
          </mxGeometry>
        </mxCell>
        <mxCell id="ZeIe9nPfyKFeGoANkGUT-3" value="nem lökted fel&lt;br style=&quot;font-size: 10px;&quot;&gt;(attól még megbotlottál benne)" style="text;html=1;align=center;verticalAlign=middle;resizable=0;points=[];autosize=1;strokeColor=none;fillColor=#d5e8d4;rounded=1;fontSize=10;" parent="1" vertex="1">
          <mxGeometry x="1096" y="570" width="160" height="40" as="geometry" />
        </mxCell>
        <mxCell id="ZeIe9nPfyKFeGoANkGUT-4" value="" style="endArrow=none;dashed=1;html=1;rounded=0;exitX=0.37;exitY=-0.033;exitDx=0;exitDy=0;exitPerimeter=0;entryX=0.75;entryY=1;entryDx=0;entryDy=0;" parent="1" source="ZeIe9nPfyKFeGoANkGUT-3" target="VQEg4Eyufkacg4ii3oWg-32" edge="1">
          <mxGeometry width="50" height="50" relative="1" as="geometry">
            <mxPoint x="1060" y="580" as="sourcePoint" />
            <mxPoint x="1070" y="560" as="targetPoint" />
          </mxGeometry>
        </mxCell>
        <mxCell id="ZeIe9nPfyKFeGoANkGUT-6" value="" style="endArrow=none;dashed=1;html=1;rounded=0;entryX=0.78;entryY=1.033;entryDx=0;entryDy=0;entryPerimeter=0;exitX=0.21;exitY=-0.045;exitDx=0;exitDy=0;exitPerimeter=0;" parent="1" source="ZeIe9nPfyKFeGoANkGUT-7" target="ZeIe9nPfyKFeGoANkGUT-3" edge="1">
          <mxGeometry width="50" height="50" relative="1" as="geometry">
            <mxPoint x="1200" y="630" as="sourcePoint" />
            <mxPoint x="1130" y="560" as="targetPoint" />
          </mxGeometry>
        </mxCell>
        <mxCell id="ZeIe9nPfyKFeGoANkGUT-7" value="bocsánatot kérsz:&lt;br style=&quot;font-size: 10px;&quot;&gt;tovább mehettél baj nélkül" style="text;html=1;align=center;verticalAlign=middle;resizable=0;points=[];autosize=1;strokeColor=none;fillColor=#d5e8d4;fontSize=10;rounded=1;" parent="1" vertex="1">
          <mxGeometry x="1225" y="630" width="140" height="40" as="geometry" />
        </mxCell>
        <mxCell id="ZeIe9nPfyKFeGoANkGUT-9" value="nem kérsz bocsánatot:&lt;br style=&quot;font-size: 10px;&quot;&gt;az anyja rád küldi&amp;nbsp;&lt;br style=&quot;font-size: 10px;&quot;&gt;az őröket -&amp;gt; játék vége" style="text;html=1;align=center;verticalAlign=middle;resizable=0;points=[];autosize=1;strokeColor=#FF9999;fillColor=#F8CCC1;fontSize=10;rounded=1;gradientColor=#FFF8F5;gradientDirection=north;strokeWidth=1;" parent="1" vertex="1">
          <mxGeometry x="1095" y="645" width="120" height="50" as="geometry" />
        </mxCell>
        <mxCell id="ZeIe9nPfyKFeGoANkGUT-10" value="" style="endArrow=none;dashed=1;html=1;rounded=0;entryX=0.31;entryY=1.1;entryDx=0;entryDy=0;entryPerimeter=0;exitX=0.62;exitY=0;exitDx=0;exitDy=0;exitPerimeter=0;" parent="1" source="ZeIe9nPfyKFeGoANkGUT-9" target="ZeIe9nPfyKFeGoANkGUT-3" edge="1">
          <mxGeometry width="50" height="50" relative="1" as="geometry">
            <mxPoint x="1210" y="640" as="sourcePoint" />
            <mxPoint x="1198" y="611" as="targetPoint" />
          </mxGeometry>
        </mxCell>
        <mxCell id="mEzDhjuTcP2UeNapwm7h-1" value="kevés pénzt&lt;br&gt;veszítesz" style="text;html=1;align=center;verticalAlign=middle;resizable=0;points=[];autosize=1;strokeColor=none;fillColor=#f8cecc;fontSize=10;rounded=1;" parent="1" vertex="1">
          <mxGeometry x="380" y="695" width="80" height="40" as="geometry" />
        </mxCell>
        <mxCell id="mEzDhjuTcP2UeNapwm7h-2" value="elveszíted az összes&amp;nbsp;&lt;br&gt;pénzed" style="text;html=1;align=center;verticalAlign=middle;resizable=0;points=[];autosize=1;strokeColor=none;fillColor=#f8cecc;fontSize=10;rounded=1;" parent="1" vertex="1">
          <mxGeometry x="360" y="755" width="120" height="40" as="geometry" />
        </mxCell>
        <mxCell id="mEzDhjuTcP2UeNapwm7h-3" value="nem állsz be játszani,&lt;br style=&quot;font-size: 10px;&quot;&gt;továbbmész:&lt;br style=&quot;font-size: 10px;&quot;&gt;találsz 15 aranypénzt a földön&lt;br style=&quot;font-size: 10px;&quot;&gt;és felveszed" style="text;html=1;align=center;verticalAlign=middle;resizable=0;points=[];autosize=1;strokeColor=none;fillColor=#d5e8d4;fontSize=10;rounded=1;" parent="1" vertex="1">
          <mxGeometry x="685" y="825" width="160" height="60" as="geometry" />
        </mxCell>
        <mxCell id="mEzDhjuTcP2UeNapwm7h-4" value="" style="endArrow=none;dashed=1;html=1;rounded=0;exitX=1.005;exitY=0.518;exitDx=0;exitDy=0;exitPerimeter=0;entryX=0.186;entryY=0.112;entryDx=0;entryDy=0;entryPerimeter=0;" parent="1" source="mEzDhjuTcP2UeNapwm7h-1" target="6HmCGZH6WjF-qbQaToqf-12" edge="1">
          <mxGeometry width="50" height="50" relative="1" as="geometry">
            <mxPoint x="660" y="782.5" as="sourcePoint" />
            <mxPoint x="710" y="732.5" as="targetPoint" />
          </mxGeometry>
        </mxCell>
        <mxCell id="mEzDhjuTcP2UeNapwm7h-5" value="" style="endArrow=none;dashed=1;html=1;rounded=0;entryX=0;entryY=0.5;entryDx=0;entryDy=0;exitX=1.031;exitY=0.556;exitDx=0;exitDy=0;exitPerimeter=0;" parent="1" source="mEzDhjuTcP2UeNapwm7h-2" target="6HmCGZH6WjF-qbQaToqf-12" edge="1">
          <mxGeometry width="50" height="50" relative="1" as="geometry">
            <mxPoint x="530" y="780" as="sourcePoint" />
            <mxPoint x="663.84" y="797.85" as="targetPoint" />
          </mxGeometry>
        </mxCell>
        <mxCell id="mEzDhjuTcP2UeNapwm7h-6" value="" style="endArrow=none;dashed=1;html=1;rounded=0;exitX=0.5;exitY=0;exitDx=0;exitDy=0;entryX=0.833;entryY=1;entryDx=0;entryDy=0;entryPerimeter=0;" parent="1" source="6HmCGZH6WjF-qbQaToqf-13" target="VQEg4Eyufkacg4ii3oWg-23" edge="1">
          <mxGeometry width="50" height="50" relative="1" as="geometry">
            <mxPoint x="770" y="800" as="sourcePoint" />
            <mxPoint x="720" y="750" as="targetPoint" />
          </mxGeometry>
        </mxCell>
        <mxCell id="mEzDhjuTcP2UeNapwm7h-7" value="belépsz" style="text;html=1;align=center;verticalAlign=middle;resizable=0;points=[];autosize=1;strokeColor=none;fillColor=#d5e8d4;rounded=1;fontSize=10;" parent="1" vertex="1">
          <mxGeometry x="970" y="795" width="60" height="30" as="geometry" />
        </mxCell>
        <mxCell id="mEzDhjuTcP2UeNapwm7h-10" value="elutasítod:&lt;br style=&quot;font-size: 10px;&quot;&gt;elátkoz" style="text;html=1;align=center;verticalAlign=middle;resizable=0;points=[];autosize=1;strokeColor=none;fillColor=#f8cecc;rounded=1;fontSize=10;" parent="1" vertex="1">
          <mxGeometry x="1120" y="300" width="70" height="40" as="geometry" />
        </mxCell>
        <mxCell id="mEzDhjuTcP2UeNapwm7h-11" value="&lt;h1&gt;DisneyLand&lt;/h1&gt;&lt;p&gt;A játékos a bejáratnál kezdi a játékot. Célja az, hogy eljusson a kastélyba, anélkül hogy kirúgják, vagy elveszítse az életét.&lt;/p&gt;" style="text;html=1;strokeColor=none;fillColor=none;spacing=5;spacingTop=-20;whiteSpace=wrap;overflow=hidden;rounded=0;" parent="1" vertex="1">
          <mxGeometry x="750" y="20" width="190" height="120" as="geometry" />
        </mxCell>
        <mxCell id="mEzDhjuTcP2UeNapwm7h-13" value="&lt;h1 style=&quot;text-align: justify;&quot;&gt;&lt;font style=&quot;font-size: 13px;&quot;&gt;Kezdő statisztika&lt;/font&gt;&lt;/h1&gt;&lt;p style=&quot;&quot;&gt;&lt;/p&gt;&lt;ul style=&quot;font-size: 11px;&quot;&gt;&lt;li style=&quot;text-align: justify;&quot;&gt;&lt;span style=&quot;&quot;&gt;arany : 50 db&lt;/span&gt;&lt;/li&gt;&lt;li style=&quot;border-color: var(--border-color);&quot;&gt;cukor : 0 db&lt;/li&gt;&lt;li style=&quot;border-color: var(--border-color);&quot;&gt;energia : 10&lt;/li&gt;&lt;li style=&quot;border-color: var(--border-color);&quot;&gt;életerő : 10&lt;br&gt;&lt;/li&gt;&lt;/ul&gt;&lt;p&gt;&lt;/p&gt;" style="text;html=1;strokeColor=none;fillColor=#e6d0de;spacing=5;spacingTop=-20;whiteSpace=wrap;overflow=hidden;rounded=1;fontSize=10;gradientColor=#d5739d;glass=1;" parent="1" vertex="1">
          <mxGeometry x="1040" y="60" width="130" height="100" as="geometry" />
        </mxCell>
        <mxCell id="mEzDhjuTcP2UeNapwm7h-18" value="" style="endArrow=classic;html=1;rounded=0;entryX=0;entryY=0.5;entryDx=0;entryDy=0;exitX=0.5;exitY=1;exitDx=0;exitDy=0;" parent="1" source="mEzDhjuTcP2UeNapwm7h-11" target="mEzDhjuTcP2UeNapwm7h-13" edge="1">
          <mxGeometry width="50" height="50" relative="1" as="geometry">
            <mxPoint x="760" y="320" as="sourcePoint" />
            <mxPoint x="810" y="270" as="targetPoint" />
            <Array as="points">
              <mxPoint x="930" y="150" />
            </Array>
          </mxGeometry>
        </mxCell>
        <mxCell id="mEzDhjuTcP2UeNapwm7h-19" value="van pénzed a jegyre,&lt;br style=&quot;font-size: 10px;&quot;&gt;hogy belépj a kastélyba&lt;br style=&quot;font-size: 10px;&quot;&gt;(75 arany)&lt;br style=&quot;font-size: 10px;&quot;&gt;" style="text;html=1;align=center;verticalAlign=middle;resizable=0;points=[];autosize=1;strokeColor=none;fillColor=#d5e8d4;rounded=1;fontSize=10;" parent="1" vertex="1">
          <mxGeometry x="850" y="850" width="130" height="50" as="geometry" />
        </mxCell>
        <mxCell id="mEzDhjuTcP2UeNapwm7h-20" value="Megvetted a jegyet,&lt;br style=&quot;font-size: 10px;&quot;&gt;és sikeresen folytathatod tovább&amp;nbsp;&lt;br style=&quot;font-size: 10px;&quot;&gt;utadat a kastélyban.&lt;br style=&quot;font-size: 10px;&quot;&gt;Játék megnyerve!" style="text;html=1;align=center;verticalAlign=middle;resizable=0;points=[];autosize=1;strokeColor=#24FF14;fillColor=#d5e8d4;rounded=1;fontSize=10;gradientColor=#24FF14;" parent="1" vertex="1">
          <mxGeometry x="657" y="905" width="170" height="60" as="geometry" />
        </mxCell>
        <mxCell id="mEzDhjuTcP2UeNapwm7h-21" value="Megvetted a jegyet,&lt;br style=&quot;font-size: 10px;&quot;&gt;azonban kiesett a kezedből,&lt;br style=&quot;font-size: 10px;&quot;&gt;és soha nem találtad meg&lt;br style=&quot;font-size: 10px;&quot;&gt;Elvesztetted a játékot." style="text;html=1;align=center;verticalAlign=middle;resizable=0;points=[];autosize=1;strokeColor=#FF9999;fillColor=#F8CCC1;rounded=1;fontSize=10;gradientColor=#FFF8F5;gradientDirection=north;" parent="1" vertex="1">
          <mxGeometry x="845" y="990" width="150" height="60" as="geometry" />
        </mxCell>
        <mxCell id="mEzDhjuTcP2UeNapwm7h-23" value="nincs pénzed a jegyre" style="text;html=1;align=center;verticalAlign=middle;resizable=0;points=[];autosize=1;strokeColor=none;fillColor=#f8cecc;rounded=1;" parent="1" vertex="1">
          <mxGeometry x="1036.5" y="850" width="140" height="30" as="geometry" />
        </mxCell>
        <mxCell id="mEzDhjuTcP2UeNapwm7h-25" value="Egy kedves ember vett &lt;br&gt;neked egy jegyet.&lt;br style=&quot;font-size: 10px;&quot;&gt;Sikeresen folytathatod tovább utadat&lt;br style=&quot;font-size: 10px;&quot;&gt;a kastélyban.&lt;br style=&quot;font-size: 10px;&quot;&gt;Játék megnyerve!" style="text;html=1;align=center;verticalAlign=middle;resizable=0;points=[];autosize=1;strokeColor=#24FF14;fillColor=#d5e8d4;rounded=1;fontSize=10;gradientColor=#24FF14;" parent="1" vertex="1">
          <mxGeometry x="1020" y="990" width="190" height="70" as="geometry" />
        </mxCell>
        <mxCell id="mEzDhjuTcP2UeNapwm7h-26" value="Az őrök eltávolítottak téged &lt;br&gt;a kastélyból.&lt;br&gt;Elvesztetted a játékot." style="text;html=1;align=center;verticalAlign=middle;resizable=0;points=[];autosize=1;strokeColor=#FF9999;fillColor=#F8CCC1;rounded=1;gradientColor=#FFF8F5;gradientDirection=north;" parent="1" vertex="1">
          <mxGeometry x="1210" y="930" width="170" height="60" as="geometry" />
        </mxCell>
        <mxCell id="mEzDhjuTcP2UeNapwm7h-27" value="" style="endArrow=none;dashed=1;html=1;rounded=0;entryX=0.35;entryY=0.933;entryDx=0;entryDy=0;entryPerimeter=0;exitX=0.885;exitY=0;exitDx=0;exitDy=0;exitPerimeter=0;" parent="1" source="mEzDhjuTcP2UeNapwm7h-19" target="mEzDhjuTcP2UeNapwm7h-7" edge="1">
          <mxGeometry width="50" height="50" relative="1" as="geometry">
            <mxPoint x="940" y="870" as="sourcePoint" />
            <mxPoint x="990" y="820" as="targetPoint" />
          </mxGeometry>
        </mxCell>
        <mxCell id="mEzDhjuTcP2UeNapwm7h-28" value="" style="endArrow=none;dashed=1;html=1;rounded=0;exitX=0.061;exitY=-0.1;exitDx=0;exitDy=0;exitPerimeter=0;entryX=0.717;entryY=0.967;entryDx=0;entryDy=0;entryPerimeter=0;" parent="1" source="mEzDhjuTcP2UeNapwm7h-23" target="mEzDhjuTcP2UeNapwm7h-7" edge="1">
          <mxGeometry width="50" height="50" relative="1" as="geometry">
            <mxPoint x="975" y="875" as="sourcePoint" />
            <mxPoint x="1025" y="825" as="targetPoint" />
          </mxGeometry>
        </mxCell>
        <mxCell id="mEzDhjuTcP2UeNapwm7h-29" value="" style="endArrow=none;dashed=1;html=1;rounded=0;exitX=1.006;exitY=0.45;exitDx=0;exitDy=0;exitPerimeter=0;" parent="1" source="mEzDhjuTcP2UeNapwm7h-20" edge="1">
          <mxGeometry width="50" height="50" relative="1" as="geometry">
            <mxPoint x="827" y="950" as="sourcePoint" />
            <mxPoint x="877" y="900" as="targetPoint" />
          </mxGeometry>
        </mxCell>
        <mxCell id="mEzDhjuTcP2UeNapwm7h-30" value="" style="endArrow=none;dashed=1;html=1;rounded=0;exitX=0.533;exitY=-0.083;exitDx=0;exitDy=0;exitPerimeter=0;entryX=0.623;entryY=1.06;entryDx=0;entryDy=0;entryPerimeter=0;" parent="1" source="mEzDhjuTcP2UeNapwm7h-21" target="mEzDhjuTcP2UeNapwm7h-19" edge="1">
          <mxGeometry width="50" height="50" relative="1" as="geometry">
            <mxPoint x="895" y="950" as="sourcePoint" />
            <mxPoint x="945" y="900" as="targetPoint" />
          </mxGeometry>
        </mxCell>
        <mxCell id="mEzDhjuTcP2UeNapwm7h-31" value="" style="endArrow=none;dashed=1;html=1;rounded=0;entryX=0.361;entryY=1;entryDx=0;entryDy=0;entryPerimeter=0;exitX=0.453;exitY=-0.029;exitDx=0;exitDy=0;exitPerimeter=0;" parent="1" source="mEzDhjuTcP2UeNapwm7h-25" target="mEzDhjuTcP2UeNapwm7h-23" edge="1">
          <mxGeometry width="50" height="50" relative="1" as="geometry">
            <mxPoint x="1046.5" y="930" as="sourcePoint" />
            <mxPoint x="1096.5" y="880" as="targetPoint" />
          </mxGeometry>
        </mxCell>
        <mxCell id="mEzDhjuTcP2UeNapwm7h-32" value="" style="endArrow=none;dashed=1;html=1;rounded=0;entryX=0.911;entryY=0.933;entryDx=0;entryDy=0;entryPerimeter=0;exitX=0.147;exitY=-0.05;exitDx=0;exitDy=0;exitPerimeter=0;" parent="1" source="mEzDhjuTcP2UeNapwm7h-26" target="mEzDhjuTcP2UeNapwm7h-23" edge="1">
          <mxGeometry width="50" height="50" relative="1" as="geometry">
            <mxPoint x="1130" y="930" as="sourcePoint" />
            <mxPoint x="1180" y="880" as="targetPoint" />
          </mxGeometry>
        </mxCell>
        <mxCell id="mEzDhjuTcP2UeNapwm7h-33" value="még sem mész be a kastélyba:&lt;br&gt;Elvesztetted a játékot." style="text;html=1;align=center;verticalAlign=middle;resizable=0;points=[];autosize=1;strokeColor=#FF9999;fillColor=#F8CCC1;gradientColor=#FFFBF7;gradientDirection=north;rounded=1;" parent="1" vertex="1">
          <mxGeometry x="1190" y="800" width="190" height="40" as="geometry" />
        </mxCell>
        <mxCell id="mEzDhjuTcP2UeNapwm7h-34" value="" style="endArrow=none;dashed=1;html=1;rounded=0;exitX=1;exitY=0.1;exitDx=0;exitDy=0;exitPerimeter=0;" parent="1" source="mEzDhjuTcP2UeNapwm7h-7" edge="1">
          <mxGeometry width="50" height="50" relative="1" as="geometry">
            <mxPoint x="1025" y="830" as="sourcePoint" />
            <mxPoint x="1075" y="780" as="targetPoint" />
          </mxGeometry>
        </mxCell>
        <mxCell id="mEzDhjuTcP2UeNapwm7h-35" value="" style="endArrow=none;dashed=1;html=1;rounded=0;exitX=1;exitY=0.75;exitDx=0;exitDy=0;entryX=0.279;entryY=-0.025;entryDx=0;entryDy=0;entryPerimeter=0;" parent="1" source="VQEg4Eyufkacg4ii3oWg-27" target="mEzDhjuTcP2UeNapwm7h-33" edge="1">
          <mxGeometry width="50" height="50" relative="1" as="geometry">
            <mxPoint x="1200" y="780" as="sourcePoint" />
            <mxPoint x="1250" y="730" as="targetPoint" />
          </mxGeometry>
        </mxCell>
        <mxCell id="JmrST0N77hDcvdrlOpVP-1" value="" style="endArrow=classic;html=1;rounded=0;exitX=0.25;exitY=1;exitDx=0;exitDy=0;" parent="1" source="VQEg4Eyufkacg4ii3oWg-29" edge="1">
          <mxGeometry width="50" height="50" relative="1" as="geometry">
            <mxPoint x="710" y="620" as="sourcePoint" />
            <mxPoint x="650" y="520" as="targetPoint" />
          </mxGeometry>
        </mxCell>
        <mxCell id="JmrST0N77hDcvdrlOpVP-2" value="" style="endArrow=none;dashed=1;html=1;rounded=0;exitX=0.99;exitY=0.222;exitDx=0;exitDy=0;exitPerimeter=0;" parent="1" source="JmrST0N77hDcvdrlOpVP-5" edge="1">
          <mxGeometry width="50" height="50" relative="1" as="geometry">
            <mxPoint x="550" y="540" as="sourcePoint" />
            <mxPoint x="650" y="520" as="targetPoint" />
          </mxGeometry>
        </mxCell>
        <mxCell id="JmrST0N77hDcvdrlOpVP-3" value="" style="endArrow=none;dashed=1;html=1;rounded=0;exitX=0.532;exitY=0;exitDx=0;exitDy=0;exitPerimeter=0;" parent="1" source="JmrST0N77hDcvdrlOpVP-6" edge="1">
          <mxGeometry width="50" height="50" relative="1" as="geometry">
            <mxPoint x="650" y="590" as="sourcePoint" />
            <mxPoint x="650" y="520" as="targetPoint" />
          </mxGeometry>
        </mxCell>
        <mxCell id="JmrST0N77hDcvdrlOpVP-4" value="" style="endArrow=none;dashed=1;html=1;rounded=0;entryX=0.147;entryY=-0.014;entryDx=0;entryDy=0;entryPerimeter=0;" parent="1" target="JmrST0N77hDcvdrlOpVP-7" edge="1">
          <mxGeometry width="50" height="50" relative="1" as="geometry">
            <mxPoint x="650" y="520" as="sourcePoint" />
            <mxPoint x="730" y="570" as="targetPoint" />
          </mxGeometry>
        </mxCell>
        <mxCell id="JmrST0N77hDcvdrlOpVP-5" value="Találkozol Donald kacsával:&lt;br&gt;Donald kacsa felajánlott egy közös képet,&lt;br&gt;és ez jó kedvre derített.&amp;nbsp;&lt;br&gt;(+1 hp)" style="text;html=1;align=center;verticalAlign=middle;resizable=0;points=[];autosize=1;strokeColor=none;fillColor=#d5e8d4;fontSize=10;rounded=1;" parent="1" vertex="1">
          <mxGeometry x="309" y="520" width="210" height="60" as="geometry" />
        </mxCell>
        <mxCell id="JmrST0N77hDcvdrlOpVP-6" value="Találkozol Shrek-kel:&lt;br&gt;közölted vele, hogy szeretnél vele&amp;nbsp;&lt;br&gt;fotózkodni, de ő csak az összes aranyadért&lt;br&gt;cserébe egyezett bele." style="text;html=1;align=center;verticalAlign=middle;resizable=0;points=[];autosize=1;strokeColor=none;fillColor=#f8cecc;fontSize=10;rounded=1;" parent="1" vertex="1">
          <mxGeometry x="380" y="600" width="220" height="60" as="geometry" />
        </mxCell>
        <mxCell id="JmrST0N77hDcvdrlOpVP-7" value="Találkozol Miki egérrel:&lt;br style=&quot;font-size: 10px;&quot;&gt;kértél tőle egy fotózkodást,&lt;br style=&quot;font-size: 10px;&quot;&gt;azonban ellopta az összes cukrod." style="text;html=1;align=center;verticalAlign=middle;resizable=0;points=[];autosize=1;strokeColor=none;fillColor=#f8cecc;fontSize=10;rounded=1;" parent="1" vertex="1">
          <mxGeometry x="640" y="570" width="180" height="50" as="geometry" />
        </mxCell>
        <mxCell id="JmrST0N77hDcvdrlOpVP-8" value="&lt;b&gt;&lt;font style=&quot;font-size: 14px;&quot;&gt;vagy&lt;/font&gt;&lt;/b&gt;" style="text;html=1;align=center;verticalAlign=middle;resizable=0;points=[];autosize=1;strokeColor=none;fillColor=none;" parent="1" vertex="1">
          <mxGeometry x="550" y="305" width="60" height="30" as="geometry" />
        </mxCell>
        <mxCell id="JmrST0N77hDcvdrlOpVP-10" value="erős szél" style="shape=ext;double=1;rounded=0;whiteSpace=wrap;html=1;" parent="1" vertex="1">
          <mxGeometry x="610" y="300" width="120" height="40" as="geometry" />
        </mxCell>
        <mxCell id="JmrST0N77hDcvdrlOpVP-13" value="&lt;b&gt;&lt;i&gt;&lt;font style=&quot;font-size: 13px;&quot;&gt;virágok&lt;/font&gt;&lt;/i&gt;&lt;/b&gt;" style="ellipse;whiteSpace=wrap;html=1;aspect=fixed;" parent="1" vertex="1">
          <mxGeometry x="530" y="180" width="80" height="80" as="geometry" />
        </mxCell>
        <mxCell id="JmrST0N77hDcvdrlOpVP-14" value="" style="endArrow=none;dashed=1;html=1;rounded=0;entryX=0.25;entryY=1;entryDx=0;entryDy=0;exitX=1.013;exitY=0.34;exitDx=0;exitDy=0;exitPerimeter=0;" parent="1" source="JmrST0N77hDcvdrlOpVP-15" target="VQEg4Eyufkacg4ii3oWg-34" edge="1">
          <mxGeometry width="50" height="50" relative="1" as="geometry">
            <mxPoint x="470" y="420" as="sourcePoint" />
            <mxPoint x="480" y="390" as="targetPoint" />
          </mxGeometry>
        </mxCell>
        <mxCell id="JmrST0N77hDcvdrlOpVP-15" value="Elrepít téged varázsországba,&lt;br style=&quot;font-size: 10px;&quot;&gt;soha nem térsz vissza:&lt;br style=&quot;font-size: 10px;&quot;&gt;Játék vége" style="text;html=1;align=center;verticalAlign=middle;resizable=0;points=[];autosize=1;strokeColor=#FF9999;fillColor=#F8CCC1;rounded=1;gradientColor=#FFFBF7;gradientDirection=north;fontSize=10;" parent="1" vertex="1">
          <mxGeometry x="230" y="368" width="160" height="50" as="geometry" />
        </mxCell>
        <mxCell id="JmrST0N77hDcvdrlOpVP-16" value="" style="endArrow=none;dashed=1;html=1;rounded=0;entryX=0.658;entryY=0.975;entryDx=0;entryDy=0;entryPerimeter=0;exitX=0.654;exitY=0;exitDx=0;exitDy=0;exitPerimeter=0;" parent="1" source="JmrST0N77hDcvdrlOpVP-17" target="VQEg4Eyufkacg4ii3oWg-34" edge="1">
          <mxGeometry width="50" height="50" relative="1" as="geometry">
            <mxPoint x="570" y="410" as="sourcePoint" />
            <mxPoint x="510" y="395" as="targetPoint" />
          </mxGeometry>
        </mxCell>
        <mxCell id="JmrST0N77hDcvdrlOpVP-17" value="Elvarázsol egy időre&lt;br style=&quot;font-size: 10px;&quot;&gt;(+5 energia)" style="text;html=1;align=center;verticalAlign=middle;resizable=0;points=[];autosize=1;strokeColor=none;fillColor=#d5e8d4;rounded=1;fontSize=10;" parent="1" vertex="1">
          <mxGeometry x="400" y="410" width="110" height="40" as="geometry" />
        </mxCell>
        <mxCell id="JmrST0N77hDcvdrlOpVP-18" value="" style="endArrow=none;dashed=1;html=1;rounded=0;entryX=0.677;entryY=1.05;entryDx=0;entryDy=0;exitX=0.462;exitY=0;exitDx=0;exitDy=0;exitPerimeter=0;entryPerimeter=0;" parent="1" source="JmrST0N77hDcvdrlOpVP-19" target="JmrST0N77hDcvdrlOpVP-10" edge="1">
          <mxGeometry width="50" height="50" relative="1" as="geometry">
            <mxPoint x="710" y="380" as="sourcePoint" />
            <mxPoint x="790" y="480" as="targetPoint" />
          </mxGeometry>
        </mxCell>
        <mxCell id="JmrST0N77hDcvdrlOpVP-19" value="Egy holnapig érvényes&amp;nbsp;&lt;br style=&quot;font-size: 10px;&quot;&gt;kastély-jegyet fúj a szél&lt;br style=&quot;font-size: 10px;&quot;&gt;az arcodba." style="text;html=1;align=center;verticalAlign=middle;resizable=0;points=[];autosize=1;strokeColor=none;fillColor=#d5e8d4;fontSize=10;rounded=1;" parent="1" vertex="1">
          <mxGeometry x="690" y="350" width="130" height="50" as="geometry" />
        </mxCell>
        <mxCell id="JmrST0N77hDcvdrlOpVP-20" value="Az erős szél miatt&lt;br style=&quot;font-size: 10px;&quot;&gt;elestél, és lehorzsoltad a könyököd.&lt;br style=&quot;font-size: 10px;&quot;&gt;(- 3 hp)" style="text;html=1;align=center;verticalAlign=middle;resizable=0;points=[];autosize=1;strokeColor=none;fillColor=#f8cecc;rounded=1;fontSize=10;" parent="1" vertex="1">
          <mxGeometry x="510" y="400" width="180" height="50" as="geometry" />
        </mxCell>
        <mxCell id="JmrST0N77hDcvdrlOpVP-21" value="" style="endArrow=none;dashed=1;html=1;rounded=0;entryX=0.261;entryY=1.104;entryDx=0;entryDy=0;entryPerimeter=0;exitX=0.482;exitY=-0.04;exitDx=0;exitDy=0;exitPerimeter=0;" parent="1" source="JmrST0N77hDcvdrlOpVP-20" target="JmrST0N77hDcvdrlOpVP-10" edge="1">
          <mxGeometry width="50" height="50" relative="1" as="geometry">
            <mxPoint x="800" y="450" as="sourcePoint" />
            <mxPoint x="850" y="400" as="targetPoint" />
          </mxGeometry>
        </mxCell>
        <mxCell id="tyvOHzYTXg94P7KKSL1S-2" value="jobbra mész, vagy balra (opcionális)" style="shape=ext;double=1;rounded=0;whiteSpace=wrap;html=1;fontSize=10;" parent="1" vertex="1">
          <mxGeometry x="845" y="360" width="70" height="40" as="geometry" />
        </mxCell>
        <mxCell id="6HmCGZH6WjF-qbQaToqf-1" value="" style="endArrow=none;html=1;rounded=0;exitX=1.013;exitY=0.615;exitDx=0;exitDy=0;exitPerimeter=0;" parent="1" source="6HmCGZH6WjF-qbQaToqf-6" edge="1">
          <mxGeometry width="50" height="50" relative="1" as="geometry">
            <mxPoint x="790" y="300" as="sourcePoint" />
            <mxPoint x="810" y="290" as="targetPoint" />
          </mxGeometry>
        </mxCell>
        <mxCell id="6HmCGZH6WjF-qbQaToqf-2" value="" style="endArrow=none;html=1;rounded=0;exitX=0.625;exitY=0.032;exitDx=0;exitDy=0;exitPerimeter=0;" parent="1" source="6HmCGZH6WjF-qbQaToqf-7" edge="1">
          <mxGeometry width="50" height="50" relative="1" as="geometry">
            <mxPoint x="825" y="295" as="sourcePoint" />
            <mxPoint x="831.9999999999998" y="290.00000000000006" as="targetPoint" />
          </mxGeometry>
        </mxCell>
        <mxCell id="6HmCGZH6WjF-qbQaToqf-3" value="" style="endArrow=none;html=1;rounded=0;exitX=0.771;exitY=0.995;exitDx=0;exitDy=0;exitPerimeter=0;" parent="1" source="VQEg4Eyufkacg4ii3oWg-38" edge="1">
          <mxGeometry width="50" height="50" relative="1" as="geometry">
            <mxPoint x="861.71" y="300" as="sourcePoint" />
            <mxPoint x="861.0003225806452" y="289.00000000000006" as="targetPoint" />
          </mxGeometry>
        </mxCell>
        <mxCell id="6HmCGZH6WjF-qbQaToqf-6" value="pocsolya" style="text;html=1;align=center;verticalAlign=middle;resizable=0;points=[];autosize=1;strokeColor=none;fillColor=#f8cecc;rounded=1;" parent="1" vertex="1">
          <mxGeometry x="710" y="270" width="70" height="30" as="geometry" />
        </mxCell>
        <mxCell id="6HmCGZH6WjF-qbQaToqf-7" value="arcra esés" style="text;html=1;align=center;verticalAlign=middle;resizable=0;points=[];autosize=1;strokeColor=none;fillColor=#f8cecc;rounded=1;" parent="1" vertex="1">
          <mxGeometry x="765" y="305" width="80" height="30" as="geometry" />
        </mxCell>
        <mxCell id="6HmCGZH6WjF-qbQaToqf-8" value="megbotlás" style="text;html=1;align=center;verticalAlign=middle;resizable=0;points=[];autosize=1;strokeColor=none;fillColor=#f8cecc;rounded=1;" parent="1" vertex="1">
          <mxGeometry x="850" y="305" width="80" height="30" as="geometry" />
        </mxCell>
        <mxCell id="6HmCGZH6WjF-qbQaToqf-9" value="" style="endArrow=none;dashed=1;html=1;rounded=0;entryX=0.25;entryY=1;entryDx=0;entryDy=0;exitX=0.445;exitY=0.08;exitDx=0;exitDy=0;exitPerimeter=0;" parent="1" source="6HmCGZH6WjF-qbQaToqf-12" target="VQEg4Eyufkacg4ii3oWg-23" edge="1">
          <mxGeometry width="50" height="50" relative="1" as="geometry">
            <mxPoint x="580" y="850" as="sourcePoint" />
            <mxPoint x="745" y="781" as="targetPoint" />
          </mxGeometry>
        </mxCell>
        <mxCell id="6HmCGZH6WjF-qbQaToqf-12" value="beállsz játszani" style="ellipse;whiteSpace=wrap;html=1;" parent="1" vertex="1">
          <mxGeometry x="620" y="763" width="110" height="32" as="geometry" />
        </mxCell>
        <mxCell id="6HmCGZH6WjF-qbQaToqf-13" value="nem állsz be" style="ellipse;whiteSpace=wrap;html=1;" parent="1" vertex="1">
          <mxGeometry x="751" y="768" width="110" height="32" as="geometry" />
        </mxCell>
        <mxCell id="6HmCGZH6WjF-qbQaToqf-14" value="" style="endArrow=none;dashed=1;html=1;rounded=0;exitX=0.524;exitY=0.002;exitDx=0;exitDy=0;exitPerimeter=0;" parent="1" source="mEzDhjuTcP2UeNapwm7h-3" edge="1">
          <mxGeometry width="50" height="50" relative="1" as="geometry">
            <mxPoint x="800" y="818" as="sourcePoint" />
            <mxPoint x="804" y="800" as="targetPoint" />
          </mxGeometry>
        </mxCell>
        <mxCell id="6HmCGZH6WjF-qbQaToqf-15" value="rengeteg aranyat&amp;nbsp;&lt;br&gt;nyertél" style="text;html=1;align=center;verticalAlign=middle;resizable=0;points=[];autosize=1;strokeColor=none;fillColor=#d5e8d4;fontSize=10;rounded=1;" parent="1" vertex="1">
          <mxGeometry x="380" y="800" width="100" height="40" as="geometry" />
        </mxCell>
        <mxCell id="6HmCGZH6WjF-qbQaToqf-16" value="" style="endArrow=none;dashed=1;html=1;rounded=0;entryX=0.186;entryY=0.879;entryDx=0;entryDy=0;exitX=1.013;exitY=0.323;exitDx=0;exitDy=0;exitPerimeter=0;entryPerimeter=0;" parent="1" source="6HmCGZH6WjF-qbQaToqf-15" target="6HmCGZH6WjF-qbQaToqf-12" edge="1">
          <mxGeometry width="50" height="50" relative="1" as="geometry">
            <mxPoint x="499" y="806" as="sourcePoint" />
            <mxPoint x="630" y="789" as="targetPoint" />
          </mxGeometry>
        </mxCell>
        <mxCell id="6HmCGZH6WjF-qbQaToqf-17" value="kevés aranyat&amp;nbsp;&lt;br&gt;nyertél" style="text;html=1;align=center;verticalAlign=middle;resizable=0;points=[];autosize=1;strokeColor=none;fillColor=#d5e8d4;fontSize=10;rounded=1;" parent="1" vertex="1">
          <mxGeometry x="400" y="855" width="90" height="40" as="geometry" />
        </mxCell>
        <mxCell id="6HmCGZH6WjF-qbQaToqf-18" value="" style="endArrow=none;dashed=1;html=1;rounded=0;entryX=0.305;entryY=0.987;entryDx=0;entryDy=0;exitX=0.746;exitY=0;exitDx=0;exitDy=0;exitPerimeter=0;entryPerimeter=0;" parent="1" source="6HmCGZH6WjF-qbQaToqf-17" target="6HmCGZH6WjF-qbQaToqf-12" edge="1">
          <mxGeometry width="50" height="50" relative="1" as="geometry">
            <mxPoint x="491" y="863" as="sourcePoint" />
            <mxPoint x="650" y="801" as="targetPoint" />
          </mxGeometry>
        </mxCell>
        <mxCell id="6HmCGZH6WjF-qbQaToqf-19" value="nem nyertél semmit, de&lt;br&gt;kiengesztelésből kapsz&lt;br&gt;kastélyjegyet" style="text;html=1;align=center;verticalAlign=middle;resizable=0;points=[];autosize=1;strokeColor=none;fillColor=#d5e8d4;fontSize=10;rounded=1;" parent="1" vertex="1">
          <mxGeometry x="505" y="855" width="130" height="50" as="geometry" />
        </mxCell>
        <mxCell id="6HmCGZH6WjF-qbQaToqf-20" value="" style="endArrow=none;dashed=1;html=1;rounded=0;entryX=0.445;entryY=0.951;entryDx=0;entryDy=0;exitX=0.508;exitY=-0.049;exitDx=0;exitDy=0;exitPerimeter=0;entryPerimeter=0;" parent="1" source="6HmCGZH6WjF-qbQaToqf-19" target="6HmCGZH6WjF-qbQaToqf-12" edge="1">
          <mxGeometry width="50" height="50" relative="1" as="geometry">
            <mxPoint x="512" y="900" as="sourcePoint" />
            <mxPoint x="664" y="805" as="targetPoint" />
          </mxGeometry>
        </mxCell>
        <mxCell id="2wYtADJDxQU_NscxffBu-1" value="" style="endArrow=none;dashed=1;html=1;rounded=0;entryX=0.25;entryY=1;entryDx=0;entryDy=0;exitX=0.712;exitY=0.049;exitDx=0;exitDy=0;exitPerimeter=0;" parent="1" source="2wYtADJDxQU_NscxffBu-2" target="VQEg4Eyufkacg4ii3oWg-32" edge="1">
          <mxGeometry width="50" height="50" relative="1" as="geometry">
            <mxPoint x="1010" y="570" as="sourcePoint" />
            <mxPoint x="1050" y="550" as="targetPoint" />
          </mxGeometry>
        </mxCell>
        <mxCell id="2wYtADJDxQU_NscxffBu-2" value="elesett&amp;nbsp;" style="text;html=1;align=center;verticalAlign=middle;resizable=0;points=[];autosize=1;strokeColor=none;fillColor=#f8cecc;rounded=1;" parent="1" vertex="1">
          <mxGeometry x="1001" y="540" width="60" height="30" as="geometry" />
        </mxCell>
        <mxCell id="2wYtADJDxQU_NscxffBu-3" value="" style="endArrow=none;dashed=1;html=1;rounded=0;entryX=0.212;entryY=0.952;entryDx=0;entryDy=0;entryPerimeter=0;exitX=0.993;exitY=0.4;exitDx=0;exitDy=0;exitPerimeter=0;" parent="1" source="2wYtADJDxQU_NscxffBu-4" target="2wYtADJDxQU_NscxffBu-2" edge="1">
          <mxGeometry width="50" height="50" relative="1" as="geometry">
            <mxPoint x="970" y="610" as="sourcePoint" />
            <mxPoint x="989" y="600" as="targetPoint" />
          </mxGeometry>
        </mxCell>
        <mxCell id="2wYtADJDxQU_NscxffBu-4" value="felsegíted&amp;nbsp;" style="text;html=1;align=center;verticalAlign=middle;resizable=0;points=[];autosize=1;strokeColor=none;fillColor=#d5e8d4;rounded=1;fontSize=10;" parent="1" vertex="1">
          <mxGeometry x="925" y="580" width="70" height="30" as="geometry" />
        </mxCell>
        <mxCell id="2wYtADJDxQU_NscxffBu-5" value="nem segíted fel" style="text;html=1;align=center;verticalAlign=middle;resizable=0;points=[];autosize=1;strokeColor=none;fillColor=#f8cecc;rounded=1;fontSize=10;" parent="1" vertex="1">
          <mxGeometry x="1005" y="615" width="90" height="30" as="geometry" />
        </mxCell>
        <mxCell id="2wYtADJDxQU_NscxffBu-6" value="" style="endArrow=none;dashed=1;html=1;rounded=0;entryX=0.683;entryY=1.067;entryDx=0;entryDy=0;entryPerimeter=0;exitX=0.423;exitY=-0.002;exitDx=0;exitDy=0;exitPerimeter=0;" parent="1" source="2wYtADJDxQU_NscxffBu-5" target="2wYtADJDxQU_NscxffBu-2" edge="1">
          <mxGeometry width="50" height="50" relative="1" as="geometry">
            <mxPoint x="964" y="612" as="sourcePoint" />
            <mxPoint x="993" y="609" as="targetPoint" />
          </mxGeometry>
        </mxCell>
        <mxCell id="2wYtADJDxQU_NscxffBu-7" value="az anyja megver" style="text;html=1;align=center;verticalAlign=middle;resizable=0;points=[];autosize=1;strokeColor=none;fillColor=#f8cecc;rounded=1;fontSize=10;" parent="1" vertex="1">
          <mxGeometry x="981" y="680" width="100" height="30" as="geometry" />
        </mxCell>
        <mxCell id="2wYtADJDxQU_NscxffBu-8" value="" style="endArrow=none;dashed=1;html=1;rounded=0;entryX=0.584;entryY=0.026;entryDx=0;entryDy=0;entryPerimeter=0;exitX=0.508;exitY=1.067;exitDx=0;exitDy=0;exitPerimeter=0;" parent="1" source="2wYtADJDxQU_NscxffBu-5" target="2wYtADJDxQU_NscxffBu-7" edge="1">
          <mxGeometry width="50" height="50" relative="1" as="geometry">
            <mxPoint x="1017" y="620" as="sourcePoint" />
            <mxPoint x="1021" y="612" as="targetPoint" />
          </mxGeometry>
        </mxCell>
        <mxCell id="2wYtADJDxQU_NscxffBu-9" value="" style="endArrow=none;dashed=1;html=1;rounded=0;exitX=0.407;exitY=1.09;exitDx=0;exitDy=0;exitPerimeter=0;entryX=0.664;entryY=-0.049;entryDx=0;entryDy=0;entryPerimeter=0;" parent="1" source="2wYtADJDxQU_NscxffBu-4" target="2wYtADJDxQU_NscxffBu-10" edge="1">
          <mxGeometry width="50" height="50" relative="1" as="geometry">
            <mxPoint x="964" y="612" as="sourcePoint" />
            <mxPoint x="890" y="640" as="targetPoint" />
          </mxGeometry>
        </mxCell>
        <mxCell id="2wYtADJDxQU_NscxffBu-10" value="cukorkáért cserébe&lt;br style=&quot;font-size: 10px;&quot;&gt;nem árul be&amp;nbsp;" style="text;html=1;align=center;verticalAlign=middle;resizable=0;points=[];autosize=1;strokeColor=none;fillColor=#d5e8d4;rounded=1;fontSize=10;" parent="1" vertex="1">
          <mxGeometry x="871" y="630" width="110" height="40" as="geometry" />
        </mxCell>
      </root>
    </mxGraphModel>
  </diagram>
</mxfile>
